<?xml version="1.0" encoding="UTF-8"?>
<svg width="51px" height="74px" viewBox="0 0 51 74" version="1.1" xmlns="http://www.w3.org/2000/svg" xmlns:xlink="http://www.w3.org/1999/xlink">
    <!-- Generator: Sketch 56.3 (81716) - https://sketch.com -->
    <title>Group 16</title>
    <desc>Created with Sketch.</desc>
    <g id="UX/UI" stroke="none" stroke-width="1" fill="none" fill-rule="evenodd">
        <g id="Homepage-#1-Copy" transform="translate(-585.000000, -11893.000000)">
            <g id="Group-22" transform="translate(585.000000, 11893.000000)">
                <g id="Group-16">
                    <path d="M31.8464301,42.492471 C27.4262413,40.9219742 22.5645354,43.2320596 20.9931357,47.6535349 C19.4207325,52.0760136 21.7336804,56.9360238 26.1528657,58.5065206 C30.5750614,60.0790244 35.4347605,57.768939 37.0071636,53.3454567 C38.5785633,48.9259885 36.2676224,44.0649748 31.8464301,42.492471" id="Fill-1" fill="#F66B28"></path>
                    <path d="M40.633418,57.2416578 C38.3714422,61.5567256 33.9796903,64.2670813 29.1699541,64.3163963 C25.6637458,64.3509169 22.3568091,63.0006705 19.8537633,60.5112463 C17.3516895,58.0218221 15.953872,54.6920692 15.918878,51.1374396 C15.883884,47.5808375 17.2156016,44.2234682 19.6690725,41.6847289 C22.1225435,39.1450033 25.4032346,37.7267021 28.9084709,37.6911953 C34.3412954,37.6369487 39.3153092,41.0525098 41.2778916,46.1931117 C42.2305071,48.6864811 44.9960082,49.9233029 47.4514233,48.957714 C49.9087825,47.9901525 51.1287135,45.1860982 50.176098,42.6927287 C47.9986912,36.9919078 43.6749832,32.5219907 38.3763025,30.0749774 L47.1996606,6.32878957 C48.0978409,3.91136532 46.8954069,1.21383152 44.5128961,0.302489204 C42.1294132,-0.609839411 39.4698662,0.611201481 38.5716859,3.02862574 L29.288545,28.0136079 C29.1300998,28.0116353 28.9716545,28.0076901 28.8132093,28.0086764 C28.5896363,28.0116353 28.3670353,28.0224846 28.1454064,28.0323476 L34.7408107,10.2808985 C35.638991,7.86347425 34.4346128,5.16495415 32.052102,4.25361183 C29.6686191,3.34128322 27.0100442,4.56331041 26.1118639,6.98073467 L16.9949447,31.5189224 C16.4729503,31.8522922 15.9606764,32.2073606 15.4629834,32.5861003 L21.2817145,16.926596 C22.1798948,14.5081855 20.9764887,11.8106517 18.5939779,10.8993094 C16.2095229,9.98698074 13.550948,11.2080216 12.6527677,13.6264322 L5.47996177,32.9313057 C4.64204895,35.3092779 0.42235108,47.5108101 0.501087667,51.9639601 C0.602181558,57.6371646 9.77353594,69.5309708 21.977707,72.8626963 C23.8216985,73.474203 25.7492868,73.8489975 27.7235338,73.9624221 C28.2338635,73.9920112 28.7490536,74.0038468 29.2652156,73.9989153 C37.5704676,73.9150797 45.1544534,69.2370531 49.059205,61.790479 C50.2976051,59.4292739 49.4149777,56.4979867 47.0878741,55.2424253 C44.7607705,53.9858775 41.8718182,54.881439 40.633418,57.2416578 Z" id="Fill-2" fill="#FFFFFF"></path>
                </g>
            </g>
        </g>
    </g>
</svg>