<?xml version="1.0" encoding="UTF-8"?>
<svg width="33px" height="33px" viewBox="0 0 33 33" version="1.1" xmlns="http://www.w3.org/2000/svg" xmlns:xlink="http://www.w3.org/1999/xlink">
    <!-- Generator: Sketch 56.3 (81716) - https://sketch.com -->
    <title>Path Copy 6</title>
    <desc>Created with Sketch.</desc>
    <g id="UX/UI" stroke="none" stroke-width="1" fill="none" fill-rule="evenodd">
        <g id="Scroll-header" transform="translate(-318.000000, -373.000000)" fill="#F66B28" fill-rule="nonzero">
            <path d="M351,376.535714 L351,402.464286 C351,404.416295 349.416295,406 347.464286,406 L341.181027,406 L341.181027,392.947321 L345.644866,392.947321 L346.285714,387.967857 L341.181027,387.967857 L341.181027,384.785714 C341.181027,383.341964 341.578795,382.362277 343.648661,382.362277 L346.285714,382.362277 L346.285714,377.91317 C345.829018,377.854241 344.267411,377.714286 342.440625,377.714286 C338.639732,377.714286 336.032143,380.034598 336.032143,384.299554 L336.032143,387.975223 L331.553571,387.975223 L331.553571,392.954687 L336.039509,392.954687 L336.039509,406 L321.535714,406 C319.583705,406 318,404.416295 318,402.464286 L318,376.535714 C318,374.583705 319.583705,373 321.535714,373 L347.464286,373 C349.416295,373 351,374.583705 351,376.535714 Z" id="Path-Copy-6"></path>
        </g>
    </g>
</svg>