<?xml version="1.0" encoding="UTF-8"?>
<svg width="33px" height="33px" viewBox="0 0 33 33" version="1.1" xmlns="http://www.w3.org/2000/svg" xmlns:xlink="http://www.w3.org/1999/xlink">
    <!-- Generator: Sketch 56.3 (81716) - https://sketch.com -->
    <title>Shape Copy 21</title>
    <desc>Created with Sketch.</desc>
    <g id="UX/UI" stroke="none" stroke-width="1" fill="none" fill-rule="evenodd">
        <g id="Scroll-header" transform="translate(-255.000000, -373.000000)" fill="#F66B28" fill-rule="nonzero">
            <path d="M285.642857,373 L257.349777,373 C256.053348,373 255,374.06808 255,375.379241 L255,403.620759 C255,404.93192 256.053348,406 257.349777,406 L285.642857,406 C286.939286,406 288,404.93192 288,403.620759 L288,375.379241 C288,374.06808 286.939286,373 285.642857,373 Z M264.973661,401.285714 L260.082589,401.285714 L260.082589,385.537054 L264.981027,385.537054 L264.981027,401.285714 L264.973661,401.285714 Z M262.528125,383.386161 C260.959152,383.386161 259.692187,382.11183 259.692187,380.550223 C259.692187,378.988616 260.959152,377.714286 262.528125,377.714286 C264.089732,377.714286 265.364062,378.988616 265.364062,380.550223 C265.364062,382.119196 264.097098,383.386161 262.528125,383.386161 L262.528125,383.386161 Z M283.307813,401.285714 L278.416741,401.285714 L278.416741,393.625 C278.416741,391.798214 278.379911,389.448437 275.875446,389.448437 C273.326786,389.448437 272.936384,391.437277 272.936384,393.492411 L272.936384,401.285714 L268.045313,401.285714 L268.045313,385.537054 L272.7375,385.537054 L272.7375,387.687946 L272.803795,387.687946 C273.459375,386.450446 275.057813,385.146652 277.437054,385.146652 C282.387054,385.146652 283.307813,388.409821 283.307813,392.652679 L283.307813,401.285714 L283.307813,401.285714 Z" id="Shape-Copy-21"></path>
        </g>
    </g>
</svg>