<?xml version="1.0" encoding="UTF-8"?>
<svg width="33px" height="26px" viewBox="0 0 33 26" version="1.1" xmlns="http://www.w3.org/2000/svg" xmlns:xlink="http://www.w3.org/1999/xlink">
    <!-- Generator: Sketch 56.3 (81716) - https://sketch.com -->
    <title>“</title>
    <desc>Created with Sketch.</desc>
    <g id="UX/UI" stroke="none" stroke-width="1" fill="none" fill-rule="evenodd">
        <g id="Profil-candidat-#1" transform="translate(-706.000000, -1121.000000)" fill="#F66B28" fill-rule="nonzero">
            <path d="M716.076563,1120.99805 L721.666406,1124.79492 C718.396859,1129.25979 716.709376,1134.07615 716.603906,1139.24414 L716.603906,1146.41602 L706.900781,1146.41602 L706.900781,1140.29883 C706.900781,1136.71287 707.753312,1133.16213 709.458398,1129.64648 C711.163485,1126.13084 713.369518,1123.24806 716.076563,1120.99805 Z M732.687891,1120.99805 L738.277734,1124.79492 C735.008187,1129.25979 733.320704,1134.07615 733.215234,1139.24414 L733.215234,1146.41602 L723.512109,1146.41602 L723.512109,1140.29883 C723.512109,1136.71287 724.36464,1133.16213 726.069727,1129.64648 C727.774813,1126.13084 729.980846,1123.24806 732.687891,1120.99805 Z" id="“"></path>
        </g>
    </g>
</svg>