<?xml version="1.0" encoding="UTF-8"?>
<svg width="33px" height="33px" viewBox="0 0 33 33" version="1.1" xmlns="http://www.w3.org/2000/svg" xmlns:xlink="http://www.w3.org/1999/xlink">
    <!-- Generator: Sketch 56.3 (81716) - https://sketch.com -->
    <title>Shape Copy 23</title>
    <desc>Created with Sketch.</desc>
    <g id="UX/UI" stroke="none" stroke-width="1" fill="none" fill-rule="evenodd">
        <g id="Scroll-header" transform="translate(-381.000000, -373.000000)" fill="#F66B28" fill-rule="nonzero">
            <path d="M410.464286,373 L384.535714,373 C382.583705,373 381,374.583705 381,376.535714 L381,402.464286 C381,404.416295 382.583705,406 384.535714,406 L410.464286,406 C412.416295,406 414,404.416295 414,402.464286 L414,376.535714 C414,374.583705 412.416295,373 410.464286,373 Z M406.862277,384.697321 C406.877009,384.903571 406.877009,385.117188 406.877009,385.323438 C406.877009,391.709821 402.015402,399.068527 393.13192,399.068527 C390.391741,399.068527 387.850446,398.272991 385.714286,396.902902 C386.104688,396.947098 386.480357,396.96183 386.878125,396.96183 C389.139509,396.96183 391.216741,396.195759 392.874107,394.89933 C390.752679,394.855134 388.970089,393.462946 388.358705,391.547768 C389.102679,391.658259 389.772991,391.658259 390.539062,391.459375 C388.329241,391.010045 386.671875,389.065402 386.671875,386.715625 L386.671875,386.656696 C387.312723,387.017634 388.064062,387.238616 388.852232,387.26808 C387.506339,386.372835 386.698693,384.862648 386.701339,383.246205 C386.701339,382.347545 386.937054,381.522545 387.35692,380.808036 C389.736161,383.739732 393.308705,385.654911 397.315848,385.861161 C396.630804,382.583259 399.083705,379.924107 402.030134,379.924107 C403.422321,379.924107 404.674554,380.506027 405.558482,381.448884 C406.648661,381.242634 407.694643,380.8375 408.622768,380.285045 C408.26183,381.404687 407.503125,382.347545 406.501339,382.944196 C407.473661,382.841071 408.416518,382.568527 409.285714,382.192857 C408.630134,383.157812 407.805134,384.012277 406.862277,384.697321 L406.862277,384.697321 Z" id="Shape-Copy-23"></path>
        </g>
    </g>
</svg>