<?xml version="1.0" encoding="UTF-8"?>
<svg width="18px" height="20px" viewBox="0 0 18 20" version="1.1" xmlns="http://www.w3.org/2000/svg" xmlns:xlink="http://www.w3.org/1999/xlink">
    <!-- Generator: Sketch 56.3 (81716) - https://sketch.com -->
    <title>Shape Copy 3</title>
    <desc>Created with Sketch.</desc>
    <g id="UX/UI" stroke="none" stroke-width="1" fill="none" fill-rule="evenodd">
        <g id="Profil-candidat-#1" transform="translate(-176.000000, -1788.000000)" fill="#FFFFFF" fill-rule="nonzero">
            <path d="M180,1802 L187,1802 L187,1804 L180,1804 L180,1802 Z M180,1798 L190,1798 L190,1800 L180,1800 L180,1798 Z M180,1794 L190,1794 L190,1796 L180,1796 L180,1794 Z M192,1790 L187.82,1790 C187.4,1788.84 186.3,1788 185,1788 C183.7,1788 182.6,1788.84 182.18,1790 L178,1790 C177.86,1790 177.73,1790.01 177.6,1790.04 C177.21,1790.12 176.86,1790.32 176.59,1790.59 C176.41,1790.77 176.26,1790.99 176.16,1791.23 C176.06,1791.46 176,1791.72 176,1792 L176,1806 C176,1806.27 176.06,1806.54 176.16,1806.78 C176.26,1807.02 176.41,1807.23 176.59,1807.42 C176.86,1807.69 177.21,1807.89 177.6,1807.97 C177.73,1807.99 177.86,1808 178,1808 L192,1808 C193.1,1808 194,1807.1 194,1806 L194,1792 C194,1790.9 193.1,1790 192,1790 Z M185,1789.75 C185.41,1789.75 185.75,1790.09 185.75,1790.5 C185.75,1790.91 185.41,1791.25 185,1791.25 C184.59,1791.25 184.25,1790.91 184.25,1790.5 C184.25,1790.09 184.59,1789.75 185,1789.75 Z M192,1806 L178,1806 L178,1792 L192,1792 L192,1806 Z" id="Shape-Copy-3"></path>
        </g>
    </g>
</svg>