<svg id="Capa_1" enable-background="new 0 0 512 512" height="512" viewBox="0 0 512 512" width="512" xmlns="http://www.w3.org/2000/svg"><g><path d="m401.175 0v30h59.405l-77.095 77.095c-23.197-18.583-52.607-29.717-84.573-29.717-30.615 0-58.887 10.211-81.602 27.4-22.714-17.188-50.986-27.4-81.602-27.4-74.716 0-135.502 60.786-135.502 135.502 0 69.646 52.819 127.179 120.502 134.667v84.226h-40.457v30h40.458v50.227h30v-50.226h40.457v-30h-40.457v-84.226c24.825-2.747 47.649-12.223 66.602-26.565 22.714 17.188 50.986 27.4 81.602 27.4 74.716 0 135.502-60.786 135.502-135.502 0-31.966-11.133-61.375-29.716-84.573l77.095-77.095v59.405h30v-110.618zm-183.864 279.677c-14.928-18.204-23.9-41.471-23.9-66.796s8.972-48.592 23.9-66.796c14.928 18.204 23.9 41.471 23.9 66.796s-8.972 48.591-23.9 66.796zm-187.104-66.796c0-58.174 47.328-105.502 105.502-105.502 22.048 0 42.536 6.803 59.482 18.414-19.821 23.568-31.781 53.955-31.781 87.088s11.96 63.52 31.781 87.088c-16.946 11.611-37.433 18.414-59.482 18.414-58.174 0-105.502-47.328-105.502-105.502zm268.705 105.502c-22.048 0-42.536-6.803-59.482-18.414 19.821-23.568 31.781-53.955 31.781-87.088s-11.96-63.52-31.781-87.088c16.946-11.611 37.433-18.414 59.482-18.414 58.174 0 105.502 47.328 105.502 105.502s-47.328 105.502-105.502 105.502z"/></g></svg>