<?xml version="1.0" encoding="UTF-8"?>
<svg width="18px" height="16px" viewBox="0 0 18 16" version="1.1" xmlns="http://www.w3.org/2000/svg" xmlns:xlink="http://www.w3.org/1999/xlink">
    <!-- Generator: Sketch 56.3 (81716) - https://sketch.com -->
    <title>Group 3</title>
    <desc>Created with Sketch.</desc>
    <g id="UX/UI" stroke="none" stroke-width="1" fill="none" fill-rule="evenodd">
        <g id="Profil-candidat-#1" transform="translate(-176.000000, -1968.000000)" fill="#FFFFFF" fill-rule="nonzero">
            <g id="Group-3" transform="translate(176.000000, 1968.000000)">
                <g id="Shape-2">
                    <path d="M15.92,1.01 C15.72,0.42 15.16,0 14.5,0 L3.5,0 C2.84,0 2.29,0.42 2.08,1.01 L0,7 L0,15 C0,15.55 0.45,16 1,16 L2,16 C2.55,16 3,15.55 3,15 L3,14 L15,14 L15,15 C15,15.55 15.45,16 16,16 L17,16 C17.55,16 18,15.55 18,15 L18,7 L15.92,1.01 Z M3.85,2 L14.14,2 L15.22,5.11 L2.77,5.11 L3.85,2 Z M16,12 L2,12 L2,7 L16,7 L16,12 Z" id="Shape"></path>
                </g>
                <circle id="Oval" cx="4.5" cy="9.5" r="1.5"></circle>
                <circle id="Oval" cx="13.5" cy="9.5" r="1.5"></circle>
            </g>
        </g>
    </g>
</svg>