<?xml version="1.0" encoding="UTF-8"?>
<svg width="18px" height="20px" viewBox="0 0 18 20" version="1.1" xmlns="http://www.w3.org/2000/svg" xmlns:xlink="http://www.w3.org/1999/xlink">
    <!-- Generator: Sketch 56.3 (81716) - https://sketch.com -->
    <title>Shape Copy 157</title>
    <desc>Created with Sketch.</desc>
    <g id="UX/UI" stroke="none" stroke-width="1" fill="none" fill-rule="evenodd">
        <g id="Profil-candidat-#1" transform="translate(-176.000000, -1878.000000)" fill="#FFFFFF" fill-rule="nonzero">
            <path d="M180,1887 L182,1887 L182,1889 L180,1889 L180,1887 Z M194,1882 L194,1896 C194,1897.1 193.1,1898 192,1898 L178,1898 C176.89,1898 176,1897.1 176,1896 L176.01,1882 C176.01,1880.9 176.89,1880 178,1880 L179,1880 L179,1878 L181,1878 L181,1880 L189,1880 L189,1878 L191,1878 L191,1880 L192,1880 C193.1,1880 194,1880.9 194,1882 Z M178,1884 L192,1884 L192,1882 L178,1882 L178,1884 Z M192,1896 L192,1886 L178,1886 L178,1896 L192,1896 Z M188,1889 L190,1889 L190,1887 L188,1887 L188,1889 Z M184,1889 L186,1889 L186,1887 L184,1887 L184,1889 Z" id="Shape-Copy-157"></path>
        </g>
    </g>
</svg>