<?xml version="1.0" encoding="UTF-8"?>
<svg width="20px" height="14px" viewBox="0 0 20 14" version="1.1" xmlns="http://www.w3.org/2000/svg" xmlns:xlink="http://www.w3.org/1999/xlink">
    <!-- Generator: Sketch 56.3 (81716) - https://sketch.com -->
    <title>Shape Copy 108</title>
    <desc>Created with Sketch.</desc>
    <g id="UX/UI" stroke="none" stroke-width="1" fill="none" fill-rule="evenodd">
        <g id="Profil-candidat-#1" transform="translate(-175.000000, -1925.000000)" fill="#FFFFFF" fill-rule="nonzero">
            <path d="M182,1933.75 C179.66,1933.75 175,1934.92 175,1937.25 L175,1939 L189,1939 L189,1937.25 C189,1934.92 184.34,1933.75 182,1933.75 Z M177.34,1937 C178.18,1936.42 180.21,1935.75 182,1935.75 C183.79,1935.75 185.82,1936.42 186.66,1937 L177.34,1937 Z M182,1932 C183.93,1932 185.5,1930.43 185.5,1928.5 C185.5,1926.57 183.93,1925 182,1925 C180.07,1925 178.5,1926.57 178.5,1928.5 C178.5,1930.43 180.07,1932 182,1932 Z M182,1927 C182.83,1927 183.5,1927.67 183.5,1928.5 C183.5,1929.33 182.83,1930 182,1930 C181.17,1930 180.5,1929.33 180.5,1928.5 C180.5,1927.67 181.17,1927 182,1927 Z M189.04,1933.81 C190.2,1934.65 191,1935.77 191,1937.25 L191,1939 L195,1939 L195,1937.25 C195,1935.23 191.5,1934.08 189.04,1933.81 L189.04,1933.81 Z M188,1932 C189.93,1932 191.5,1930.43 191.5,1928.5 C191.5,1926.57 189.93,1925 188,1925 C187.46,1925 186.96,1925.13 186.5,1925.35 C187.13,1926.24 187.5,1927.33 187.5,1928.5 C187.5,1929.67 187.13,1930.76 186.5,1931.65 C186.96,1931.87 187.46,1932 188,1932 Z" id="Shape-Copy-108"></path>
        </g>
    </g>
</svg>