<?xml version="1.0" encoding="UTF-8"?>
<svg width="17px" height="23px" viewBox="0 0 17 23" version="1.1" xmlns="http://www.w3.org/2000/svg" xmlns:xlink="http://www.w3.org/1999/xlink">
    <!-- Generator: Sketch 56.3 (81716) - https://sketch.com -->
    <title>Shape</title>
    <desc>Created with Sketch.</desc>
    <g id="UX/UI" stroke="none" stroke-width="1" fill="none" fill-rule="evenodd">
        <g id="Profil-candidat-#1" transform="translate(-775.000000, -1718.000000)" fill="#FFFFFF" fill-rule="nonzero">
            <path d="M779.5,1731.5 L775,1736 L776.5,1737.5 L780,1734 L782,1734 L779.5,1731.5 Z M786,1718 C784.9,1718 784,1718.9 784,1720 C784,1721.1 784.9,1722 786,1722 C787.1,1722 788,1721.1 788,1720 C788,1718.9 787.1,1718 786,1718 Z M792,1738.01 L789,1741 L786.01,1737.99 L786.01,1736.5 L778.91,1729.41 C778.6,1729.46 778.3,1729.48 778,1729.48 L778,1727.32 C779.66,1727.35 781.61,1726.45 782.67,1725.28 L784.07,1723.73 C784.26,1723.52 784.5,1723.35 784.76,1723.23 C785.05,1723.09 785.38,1723 785.72,1723 L785.75,1723 C786.99,1723.01 788,1724.02 788,1725.26 L788,1731.01 C788,1731.85 787.65,1732.62 787.08,1733.17 L783.5,1729.59 L783.5,1727.32 C782.87,1727.84 782.07,1728.34 781.21,1728.71 L787.5,1735 L789,1735 L792,1738.01 L792,1738.01 Z" id="Shape"></path>
        </g>
    </g>
</svg>